<svg xmlns="http://www.w3.org/2000/svg" viewBox="0 0 64 64" role="img" aria-label="Emam Legal and Consultancy"><rect width="64" height="64" rx="14" fill="#0b5a3c"/><g transform="translate(12 11) scale(1.6667)" fill="none" stroke="#dabe86" stroke-width="2" stroke-linecap="round" stroke-linejoin="round"><path d="m16 16 3-8 3 8c-.87.65-1.92 1-3 1s-2.13-.35-3-1Z"/><path d="m2 16 3-8 3 8c-.87.65-1.92 1-3 1s-2.13-.35-3-1Z"/><path d="M7 21h10"/><path d="M12 3v18"/><path d="M3 7h2c2 0 5-1 7-2 2 1 5 2 7 2h2"/></g></svg>